<mxfile host="app.diagrams.net" modified="2024-05-15T19:37:34.475Z" agent="Mozilla/5.0 (Windows NT 10.0; Win64; x64) AppleWebKit/537.36 (KHTML, like Gecko) Chrome/124.0.0.0 Safari/537.36" etag="8lnzQnCPT6xysQlB0ipc" version="24.4.0" type="device">
  <diagram name="Page-1" id="Ai5kb1i_mKgdfWgxNE-5">
    <mxGraphModel dx="1050" dy="530" grid="1" gridSize="10" guides="1" tooltips="1" connect="1" arrows="1" fold="1" page="1" pageScale="1" pageWidth="827" pageHeight="1169" math="0" shadow="0">
      <root>
        <mxCell id="0" />
        <mxCell id="1" parent="0" />
        <mxCell id="kcvLWjM9aEoVZwAG9wS8-1" value="Passenger" style="swimlane;childLayout=stackLayout;horizontal=1;startSize=50;horizontalStack=0;rounded=1;fontSize=14;fontStyle=0;strokeWidth=2;resizeParent=0;resizeLast=1;shadow=0;dashed=0;align=center;arcSize=4;whiteSpace=wrap;html=1;" vertex="1" parent="1">
          <mxGeometry x="10" y="30" width="160" height="120" as="geometry" />
        </mxCell>
        <mxCell id="kcvLWjM9aEoVZwAG9wS8-2" value="&lt;div&gt;FirstName&amp;nbsp;&lt;span style=&quot;background-color: initial;&quot;&gt;(string)&lt;/span&gt;&lt;/div&gt;&lt;div&gt;&lt;span style=&quot;background-color: initial;&quot;&gt;LastName&amp;nbsp;&lt;/span&gt;&lt;span style=&quot;background-color: initial;&quot;&gt;(string)&lt;/span&gt;&lt;/div&gt;" style="align=left;strokeColor=none;fillColor=none;spacingLeft=4;fontSize=12;verticalAlign=top;resizable=0;rotatable=0;part=1;html=1;" vertex="1" parent="kcvLWjM9aEoVZwAG9wS8-1">
          <mxGeometry y="50" width="160" height="70" as="geometry" />
        </mxCell>
        <mxCell id="kcvLWjM9aEoVZwAG9wS8-3" value="Flight" style="swimlane;childLayout=stackLayout;horizontal=1;startSize=50;horizontalStack=0;rounded=1;fontSize=14;fontStyle=0;strokeWidth=2;resizeParent=0;resizeLast=1;shadow=0;dashed=0;align=center;arcSize=4;whiteSpace=wrap;html=1;" vertex="1" parent="1">
          <mxGeometry x="500" y="160" width="160" height="160" as="geometry" />
        </mxCell>
        <mxCell id="kcvLWjM9aEoVZwAG9wS8-4" value="Number (string)&lt;div&gt;DepartureDateTime (dateTime)&lt;/div&gt;&lt;div&gt;ArrivalDateTime (dateTime)&lt;/div&gt;&lt;div&gt;DurationInMinutes (int)&lt;/div&gt;&lt;div&gt;DistanceInMiles (int)&lt;/div&gt;&lt;div&gt;&lt;div&gt;DepartureAirportId&amp;nbsp;&lt;span style=&quot;background-color: initial;&quot;&gt;(int)&lt;/span&gt;&lt;/div&gt;&lt;div&gt;ArrivalAirportId (int)&lt;/div&gt;&lt;/div&gt;" style="align=left;strokeColor=none;fillColor=none;spacingLeft=4;fontSize=12;verticalAlign=top;resizable=0;rotatable=0;part=1;html=1;" vertex="1" parent="kcvLWjM9aEoVZwAG9wS8-3">
          <mxGeometry y="50" width="160" height="110" as="geometry" />
        </mxCell>
        <mxCell id="kcvLWjM9aEoVZwAG9wS8-8" value="Airport" style="swimlane;childLayout=stackLayout;horizontal=1;startSize=50;horizontalStack=0;rounded=1;fontSize=14;fontStyle=0;strokeWidth=2;resizeParent=0;resizeLast=1;shadow=0;dashed=0;align=center;arcSize=4;whiteSpace=wrap;html=1;" vertex="1" parent="1">
          <mxGeometry x="810" y="160" width="170" height="160" as="geometry" />
        </mxCell>
        <mxCell id="kcvLWjM9aEoVZwAG9wS8-9" value="IATACode (string)&lt;div&gt;Name&amp;nbsp;&lt;span style=&quot;background-color: initial;&quot;&gt;(string)&lt;/span&gt;&lt;/div&gt;&lt;div&gt;City&amp;nbsp;&lt;span style=&quot;background-color: initial;&quot;&gt;(string)&lt;/span&gt;&lt;/div&gt;&lt;div&gt;State&amp;nbsp;&lt;span style=&quot;background-color: initial;&quot;&gt;(string)&lt;/span&gt;&lt;/div&gt;&lt;div&gt;Country (string)&lt;/div&gt;" style="align=left;strokeColor=none;fillColor=none;spacingLeft=4;fontSize=12;verticalAlign=top;resizable=0;rotatable=0;part=1;html=1;" vertex="1" parent="kcvLWjM9aEoVZwAG9wS8-8">
          <mxGeometry y="50" width="170" height="110" as="geometry" />
        </mxCell>
        <mxCell id="kcvLWjM9aEoVZwAG9wS8-11" value="" style="edgeStyle=entityRelationEdgeStyle;fontSize=12;html=1;endArrow=ERmany;startArrow=ERmany;rounded=0;entryX=0;entryY=0;entryDx=0;entryDy=0;exitX=1;exitY=0;exitDx=0;exitDy=0;" edge="1" parent="1" source="kcvLWjM9aEoVZwAG9wS8-4" target="kcvLWjM9aEoVZwAG9wS8-9">
          <mxGeometry width="100" height="100" relative="1" as="geometry">
            <mxPoint x="650" y="420" as="sourcePoint" />
            <mxPoint x="750" y="320" as="targetPoint" />
          </mxGeometry>
        </mxCell>
        <mxCell id="kcvLWjM9aEoVZwAG9wS8-12" value="departs/arrives at&lt;div&gt;&lt;br&gt;&lt;/div&gt;" style="edgeLabel;html=1;align=center;verticalAlign=middle;resizable=0;points=[];" vertex="1" connectable="0" parent="kcvLWjM9aEoVZwAG9wS8-11">
          <mxGeometry x="0.032" y="-4" relative="1" as="geometry">
            <mxPoint as="offset" />
          </mxGeometry>
        </mxCell>
        <mxCell id="kcvLWjM9aEoVZwAG9wS8-13" value="Ticket" style="swimlane;childLayout=stackLayout;horizontal=1;startSize=50;horizontalStack=0;rounded=1;fontSize=14;fontStyle=0;strokeWidth=2;resizeParent=0;resizeLast=1;shadow=0;dashed=0;align=center;arcSize=4;whiteSpace=wrap;html=1;" vertex="1" parent="1">
          <mxGeometry x="280" y="30" width="160" height="120" as="geometry" />
        </mxCell>
        <mxCell id="kcvLWjM9aEoVZwAG9wS8-14" value="TicketNumber (string)&lt;div&gt;Price (float)&lt;/div&gt;&lt;div&gt;ConfirmationNumber&amp;nbsp;&lt;span style=&quot;background-color: initial;&quot;&gt;(string)&lt;/span&gt;&lt;/div&gt;" style="align=left;strokeColor=none;fillColor=none;spacingLeft=4;fontSize=12;verticalAlign=top;resizable=0;rotatable=0;part=1;html=1;" vertex="1" parent="kcvLWjM9aEoVZwAG9wS8-13">
          <mxGeometry y="50" width="160" height="70" as="geometry" />
        </mxCell>
        <mxCell id="kcvLWjM9aEoVZwAG9wS8-16" value="" style="edgeStyle=entityRelationEdgeStyle;fontSize=12;html=1;endArrow=ERone;startArrow=ERmany;rounded=0;entryX=1;entryY=0;entryDx=0;entryDy=0;exitX=0;exitY=0;exitDx=0;exitDy=0;endFill=0;" edge="1" parent="1" source="kcvLWjM9aEoVZwAG9wS8-14" target="kcvLWjM9aEoVZwAG9wS8-2">
          <mxGeometry width="100" height="100" relative="1" as="geometry">
            <mxPoint x="140" y="330" as="sourcePoint" />
            <mxPoint x="240" y="230" as="targetPoint" />
            <Array as="points">
              <mxPoint x="100" y="340" />
            </Array>
          </mxGeometry>
        </mxCell>
        <mxCell id="kcvLWjM9aEoVZwAG9wS8-18" value="purchases" style="edgeLabel;html=1;align=center;verticalAlign=middle;resizable=0;points=[];" vertex="1" connectable="0" parent="kcvLWjM9aEoVZwAG9wS8-16">
          <mxGeometry x="-0.0307" y="2" relative="1" as="geometry">
            <mxPoint as="offset" />
          </mxGeometry>
        </mxCell>
        <mxCell id="kcvLWjM9aEoVZwAG9wS8-19" value="" style="edgeStyle=entityRelationEdgeStyle;fontSize=12;html=1;endArrow=ERone;startArrow=ERmany;rounded=0;entryX=0;entryY=0;entryDx=0;entryDy=0;exitX=1;exitY=0;exitDx=0;exitDy=0;endFill=0;" edge="1" parent="1" source="kcvLWjM9aEoVZwAG9wS8-14" target="kcvLWjM9aEoVZwAG9wS8-4">
          <mxGeometry width="100" height="100" relative="1" as="geometry">
            <mxPoint x="490" y="310" as="sourcePoint" />
            <mxPoint x="590" y="210" as="targetPoint" />
          </mxGeometry>
        </mxCell>
        <mxCell id="kcvLWjM9aEoVZwAG9wS8-20" value="issued for" style="edgeLabel;html=1;align=center;verticalAlign=middle;resizable=0;points=[];" vertex="1" connectable="0" parent="kcvLWjM9aEoVZwAG9wS8-19">
          <mxGeometry x="-0.08" y="3" relative="1" as="geometry">
            <mxPoint as="offset" />
          </mxGeometry>
        </mxCell>
        <mxCell id="kcvLWjM9aEoVZwAG9wS8-22" value="Airline" style="swimlane;childLayout=stackLayout;horizontal=1;startSize=50;horizontalStack=0;rounded=1;fontSize=14;fontStyle=0;strokeWidth=2;resizeParent=0;resizeLast=1;shadow=0;dashed=0;align=center;arcSize=4;whiteSpace=wrap;html=1;" vertex="1" parent="1">
          <mxGeometry x="500" y="400" width="160" height="120" as="geometry" />
        </mxCell>
        <mxCell id="kcvLWjM9aEoVZwAG9wS8-23" value="Name (string)" style="align=left;strokeColor=none;fillColor=none;spacingLeft=4;fontSize=12;verticalAlign=top;resizable=0;rotatable=0;part=1;html=1;" vertex="1" parent="kcvLWjM9aEoVZwAG9wS8-22">
          <mxGeometry y="50" width="160" height="70" as="geometry" />
        </mxCell>
        <mxCell id="kcvLWjM9aEoVZwAG9wS8-24" value="" style="edgeStyle=entityRelationEdgeStyle;fontSize=12;html=1;endArrow=ERoneToMany;rounded=0;exitX=1;exitY=0.25;exitDx=0;exitDy=0;" edge="1" parent="1" source="kcvLWjM9aEoVZwAG9wS8-23" target="kcvLWjM9aEoVZwAG9wS8-4">
          <mxGeometry width="100" height="100" relative="1" as="geometry">
            <mxPoint x="640" y="450" as="sourcePoint" />
            <mxPoint x="740" y="350" as="targetPoint" />
          </mxGeometry>
        </mxCell>
        <mxCell id="kcvLWjM9aEoVZwAG9wS8-29" value="by&lt;div&gt;&lt;br&gt;&lt;/div&gt;" style="edgeLabel;html=1;align=center;verticalAlign=middle;resizable=0;points=[];" vertex="1" connectable="0" parent="kcvLWjM9aEoVZwAG9wS8-24">
          <mxGeometry x="0.1116" y="-4" relative="1" as="geometry">
            <mxPoint as="offset" />
          </mxGeometry>
        </mxCell>
        <mxCell id="kcvLWjM9aEoVZwAG9wS8-25" value="FligtClass" style="swimlane;childLayout=stackLayout;horizontal=1;startSize=50;horizontalStack=0;rounded=1;fontSize=14;fontStyle=0;strokeWidth=2;resizeParent=0;resizeLast=1;shadow=0;dashed=0;align=center;arcSize=4;whiteSpace=wrap;html=1;" vertex="1" parent="1">
          <mxGeometry x="10" y="250" width="160" height="120" as="geometry" />
        </mxCell>
        <mxCell id="kcvLWjM9aEoVZwAG9wS8-26" value="Name (string)" style="align=left;strokeColor=none;fillColor=none;spacingLeft=4;fontSize=12;verticalAlign=top;resizable=0;rotatable=0;part=1;html=1;" vertex="1" parent="kcvLWjM9aEoVZwAG9wS8-25">
          <mxGeometry y="50" width="160" height="70" as="geometry" />
        </mxCell>
        <mxCell id="kcvLWjM9aEoVZwAG9wS8-27" value="" style="edgeStyle=entityRelationEdgeStyle;fontSize=12;html=1;endArrow=ERoneToMany;rounded=0;exitX=1;exitY=0;exitDx=0;exitDy=0;entryX=0;entryY=0.25;entryDx=0;entryDy=0;" edge="1" parent="1" source="kcvLWjM9aEoVZwAG9wS8-26" target="kcvLWjM9aEoVZwAG9wS8-14">
          <mxGeometry width="100" height="100" relative="1" as="geometry">
            <mxPoint x="280" y="550" as="sourcePoint" />
            <mxPoint x="380" y="450" as="targetPoint" />
          </mxGeometry>
        </mxCell>
        <mxCell id="kcvLWjM9aEoVZwAG9wS8-28" value="has" style="edgeLabel;html=1;align=center;verticalAlign=middle;resizable=0;points=[];" vertex="1" connectable="0" parent="kcvLWjM9aEoVZwAG9wS8-27">
          <mxGeometry x="0.0781" y="4" relative="1" as="geometry">
            <mxPoint as="offset" />
          </mxGeometry>
        </mxCell>
      </root>
    </mxGraphModel>
  </diagram>
</mxfile>
